<?xml version="1.0" encoding="utf-8"?>
<?xml-stylesheet type="text/xsl" href="rss1.xsl"?>
<rss version="2.0" xmlns:atom="http://www.w3.org/2005/Atom" xmlns:content="http://purl.org/rss/1.0/modules/content/" xmlns:dc="http://purl.org/dc/elements/1.1/" xmlns:media="http://search.yahoo.com/mrss/">
<channel>
 <title>Getty</title>
 <link>http://www.gettyimg.com/</link>
 <atom:link href="http://www.gettyimg.com/" rel="self" type="application/rss+xml" />

 
                <item>
                <title><![CDATA[【Apple Music】WEB-RiP - Europe - The Final Countdown (1080p)]]></title>
                <link><![CDATA[https://sharemania.us/threads/europe-the-final-countdown-1080p.223530/]]></link>
                <description><![CDATA[<article>
<blockquote class="messageText SelectQuoteContainer ugc baseHtml">
<img src="https://i.imgur.com/QAKen8p.jpg" class="bbCodeImage LbImage" alt="[​IMG]" data-url="https://i.imgur.com/QAKen8p.jpg" style=""><br>
<br>
<div class="bbCodeBlock bbCodeCode">
<div class="type">Code:</div>
<pre>General
Complete name                  : C:\Users\asus\Desktop\Europe - The Final Countdown.mp4
Format                         : MPEG-4
Format profile                 : Base Media
Codec ID                       : isom (isom/iso2/avc1/mp41)
File size                      : 357 MiB
Duration                       : 4 min 56 s
Overall bit rate               : 10.1 Mb/s
Frame rate                     : 29.970 FPS
Movie name                     : The Final Countdown
Performer                      : Europe
Genre                          : Rock
ContentType                    : Music Video
Recorded date                  : 1990-03-14 08:00:00 UTC
Writing application            : Lavf57.29.101
Copyright                      : ℗ © 1986 Epic Records, a division of Sony Music Entertainment

Video
ID                             : 1
Format                         : AVC
Format/Info                    : Advanced Video Codec
Format profile                 : High@L4
Format settings                : CABAC / 5 Ref Frames
Format settings, CABAC         : Yes
Format settings, Reference fra : 5 frames
Codec ID                       : avc1
Codec ID/Info                  : Advanced Video Coding
Duration                       : 4 min 56 s
Bit rate                       : 9 849 kb/s
Width                          : 1 420 pixels
Height                         : 1 080 pixels
Display aspect ratio           : 4:3
Frame rate mode                : Constant
Frame rate                     : 29.970 (30000/1001) FPS
Color space                    : YUV
Chroma subsampling             : 4:2:0
Bit depth                      : 8 bits
Scan type                      : Progressive
Bits/(Pixel*Frame)             : 0.214
Stream size                    : 348 MiB (97%)
Color range                    : Limited
Color primaries                : BT.709
Transfer characteristics       : BT.709
Matrix coefficients            : BT.709
Codec configuration box        : avcC

Audio
ID                             : 2
Format                         : AAC LC
Format/Info                    : Advanced Audio Codec Low Complexity
Codec ID                       : mp4a-40-2
Duration                       : 4 min 56 s
Bit rate mode                  : Constant
Bit rate                       : 265 kb/s
Channel(s)                     : 2 channels
Channel layout                 : L R
Sampling rate                  : 48.0 kHz
Frame rate                     : 46.875 FPS (1024 SPF)
Compression mode               : Lossy
Stream size                    : 9.17 MiB (3%)
Default                        : Yes
Alternate group                : 1

</pre>
</div>
<div class="bbCodeBlock bbCodeVfcHH HiddenContent">
<div class="attribution type">Hidden Content:</div>
<blockquote>You must either reply or click 'Like' to see the hidden information contained here.</blockquote>
</div>
<div class="messageTextEndMarker">&nbsp;</div>
</blockquote>
</article>]]></description>
                <author><![CDATA[vitalya3]]></author>
                </item>

                
                <item>
                <title><![CDATA[【Singers/Musicians】Miley Cyrus - Myles Hendrick 2022 Photoshoot x23]]></title>
                <link><![CDATA[https://sharemania.us/threads/miley-cyrus-myles-hendrick-2022-photoshoot-x23.223531/]]></link>
                <description><![CDATA[<article>
<blockquote class="messageText SelectQuoteContainer ugc baseHtml">
<a href="https://www.imagebam.com/view/MEMA329" target="_blank" class="externalLink" rel="nofollow"><img src="https://thumbs4.imagebam.com/da/52/14/MEMA329_t.jpeg" class="bbCodeImage LbImage" alt="[​IMG]" data-url="https://thumbs4.imagebam.com/da/52/14/MEMA329_t.jpeg"></a> <a href="https://www.imagebam.com/view/MEMA32A" target="_blank" class="externalLink" rel="nofollow"><img src="https://thumbs4.imagebam.com/68/3e/49/MEMA32A_t.jpeg" class="bbCodeImage LbImage" alt="[​IMG]" data-url="https://thumbs4.imagebam.com/68/3e/49/MEMA32A_t.jpeg"></a> <a href="https://www.imagebam.com/view/MEMA32C" target="_blank" class="externalLink" rel="nofollow"><img src="https://thumbs4.imagebam.com/9d/c5/48/MEMA32C_t.jpeg" class="bbCodeImage LbImage" alt="[​IMG]" data-url="https://thumbs4.imagebam.com/9d/c5/48/MEMA32C_t.jpeg"></a>
<div class="bbCodeBlock bbCodeVfcHH HiddenContent">
<div class="attribution type">Hidden Content:</div>
<blockquote>You must either reply or click 'Like' to see the hidden information contained here.</blockquote>
</div>
<div class="messageTextEndMarker">&nbsp;</div>
</blockquote>
</article>]]></description>
                <author><![CDATA[mcfan08]]></author>
                </item>

                
                <item>
                <title><![CDATA[【Singers/Musicians】Miley Cyrus - Amazon Holiday Plays Concert Series December 1, 2020 x3]]></title>
                <link><![CDATA[https://sharemania.us/threads/miley-cyrus-amazon-holiday-plays-concert-series-december-1-2020-x3.223532/]]></link>
                <description><![CDATA[<article>
<blockquote class="messageText SelectQuoteContainer ugc baseHtml">
<a href="http://www.imagebam.com/image/9f9f681363832805" target="_blank" class="externalLink" rel="nofollow"><img src="https://thumbs2.imagebam.com/52/7c/d3/9f9f681363832805.jpg" class="bbCodeImage LbImage" alt="[​IMG]" data-url="https://thumbs2.imagebam.com/52/7c/d3/9f9f681363832805.jpg"></a> <a href="http://www.imagebam.com/image/a73eba1363832814" target="_blank" class="externalLink" rel="nofollow"><img src="https://thumbs2.imagebam.com/59/e8/37/a73eba1363832814.jpg" class="bbCodeImage LbImage" alt="[​IMG]" data-url="https://thumbs2.imagebam.com/59/e8/37/a73eba1363832814.jpg"></a> <a href="http://www.imagebam.com/image/46d43a1363832820" target="_blank" class="externalLink" rel="nofollow"><img src="https://thumbs2.imagebam.com/26/7b/db/46d43a1363832820.jpg" class="bbCodeImage LbImage" alt="[​IMG]" data-url="https://thumbs2.imagebam.com/26/7b/db/46d43a1363832820.jpg"></a>
<div class="messageTextEndMarker">&nbsp;</div>
</blockquote>
</article>]]></description>
                <author><![CDATA[mcfan08]]></author>
                </item>

                </channel></rss>